<svg xmlns="http://www.w3.org/2000/svg" viewBox="0 0 320 108" fill="none">
  <path fill="#0B5D84" d="M66 12H108L145 96H115L106 75H54L45 96H15L66 12ZM80 32 61 63H99L80 32Z"/>
  <path fill="#0B5D84" d="M136 12H241V35H170V48H224V70H170V96H136V12Z"/>
  <path fill="#0B5D84" d="M269 12H314L287 42H253L269 12Z"/>
  <path fill="#0B5D84" d="M263 48H303L314 59V97L303 108H264L242 89V67L263 48ZM273 69 264 76V88L272 95H288L295 89V76L287 69H273Z"/>
  <path fill="#0B5D84" d="M249 32H280L259 54H228L249 32Z"/>
  <path fill="#6A7280" d="M0 104V86H7.3C11.8 86 14.7 88.6 14.7 93C14.7 97.4 11.8 100 7.3 100H3.2V104H0ZM3.2 97.4H7.1C9.8 97.4 11.5 95.9 11.5 93C11.5 90.1 9.8 88.6 7.1 88.6H3.2V97.4Z"/>
  <path fill="#6A7280" d="M55.6 104V86H62.9C67.3 86 70.1 88.2 70.1 92C70.1 94.8 68.7 96.7 66.1 97.5L70.9 104H67.1L62.8 98H58.8V104H55.6ZM58.8 95.5H62.7C65.2 95.5 66.8 94.2 66.8 92C66.8 89.8 65.2 88.6 62.7 88.6H58.8V95.5Z"/>
  <path fill="#6A7280" d="M111.8 95C111.8 89.6 116 85.7 121.8 85.7C127.6 85.7 131.8 89.6 131.8 95C131.8 100.4 127.6 104.3 121.8 104.3C116 104.3 111.8 100.4 111.8 95ZM128.5 95C128.5 91.2 125.8 88.7 121.8 88.7C117.8 88.7 115.1 91.2 115.1 95C115.1 98.8 117.8 101.3 121.8 101.3C125.8 101.3 128.5 98.8 128.5 95Z"/>
  <path fill="#6A7280" d="M172.8 104V86H180C185.9 86 190.1 89.6 190.1 95C190.1 100.4 185.9 104 180 104H172.8ZM176 101.3H179.8C183.8 101.3 186.8 98.9 186.8 95C186.8 91.1 183.8 88.7 179.8 88.7H176V101.3Z"/>
  <path fill="#6A7280" d="M231.1 96.4V86H234.3V96.1C234.3 99.5 236.2 101.3 239.3 101.3C242.4 101.3 244.3 99.5 244.3 96.1V86H247.5V96.4C247.5 101.3 244.3 104.3 239.3 104.3C234.3 104.3 231.1 101.3 231.1 96.4Z"/>
  <path fill="#6A7280" d="M289 95C289 89.6 293.1 85.7 298.9 85.7C302.1 85.7 304.9 86.9 306.8 89.1L304.8 91.1C303.3 89.5 301.4 88.7 299.1 88.7C295.1 88.7 292.3 91.2 292.3 95C292.3 98.8 295.1 101.3 299.1 101.3C301.4 101.3 303.3 100.5 304.8 98.9L306.8 100.9C304.9 103.1 302.1 104.3 298.8 104.3C293.1 104.3 289 100.4 289 95Z"/>
</svg>